<?xml version="1.0" encoding="UTF-8" standalone="no"?><!DOCTYPE svg PUBLIC "-//W3C//DTD SVG 1.1//EN" "http://www.w3.org/Graphics/SVG/1.1/DTD/svg11.dtd"><svg width="100%" height="100%" viewBox="0 0 246 246" version="1.1" xmlns="http://www.w3.org/2000/svg" xmlns:xlink="http://www.w3.org/1999/xlink" xml:space="preserve" xmlns:serif="http://www.serif.com/" style="fill-rule:evenodd;clip-rule:evenodd;stroke-linecap:round;stroke-linejoin:round;stroke-miterlimit:10;"><path d="M245.76,24.576l0,196.608c0,13.564 -11.012,24.576 -24.576,24.576l-196.608,0c-13.564,0 -24.576,-11.012 -24.576,-24.576l0,-196.608c0,-13.564 11.012,-24.576 24.576,-24.576l196.608,0c13.564,0 24.576,11.012 24.576,24.576Z" style="fill:#5cd65c;"/><path d="M245.76,24.576l0,196.608c0,13.564 -11.012,24.576 -24.576,24.576l-196.608,0c-13.564,0 -24.576,-11.012 -24.576,-24.576l0,-196.608c0,-13.564 11.012,-24.576 24.576,-24.576l196.608,0c13.564,0 24.576,11.012 24.576,24.576Zm-10,0c0,-8.045 -6.531,-14.576 -14.576,-14.576l-196.608,0c-8.045,0 -14.576,6.531 -14.576,14.576l0,196.608c0,8.045 6.531,14.576 14.576,14.576l196.608,0c8.045,0 14.576,-6.531 14.576,-14.576l0,-196.608Z"/><path d="M5.472,91.473l57.864,149.753" style="fill:none;stroke:#000;stroke-width:10px;"/><path d="M155.009,6.085l86.471,132.633" style="fill:none;stroke:#000;stroke-width:10px;"/><circle cx="179.986" cy="68.988" r="14.574" style="fill:#7500b0;"/><path d="M179.986,54.414c8.043,-0 14.574,6.531 14.574,14.574c-0,8.044 -6.531,14.575 -14.574,14.575c-8.044,-0 -14.575,-6.531 -14.575,-14.575c0,-8.043 6.531,-14.574 14.575,-14.574Zm-0,10c-2.525,-0 -4.575,2.05 -4.575,4.574c0,2.525 2.05,4.575 4.575,4.575c2.524,-0 4.574,-2.05 4.574,-4.575c-0,-2.524 -2.05,-4.574 -4.574,-4.574Z" style="fill:#7500b0;"/><circle cx="58.815" cy="191.746" r="14.574" style="fill:#5cd65c;stroke:#7500b0;stroke-width:5px;stroke-linecap:butt;stroke-linejoin:bevel;stroke-miterlimit:1;"/><path d="M68.998,181.429l110.988,-112.441" style="fill:none;stroke:#7500b0;stroke-width:5px;stroke-linecap:butt;stroke-linejoin:bevel;stroke-miterlimit:1;"/></svg>