<?xml version="1.0" encoding="UTF-8" standalone="no"?><!DOCTYPE svg PUBLIC "-//W3C//DTD SVG 1.1//EN" "http://www.w3.org/Graphics/SVG/1.1/DTD/svg11.dtd"><svg width="100%" height="100%" viewBox="0 0 246 246" version="1.1" xmlns="http://www.w3.org/2000/svg" xmlns:xlink="http://www.w3.org/1999/xlink" xml:space="preserve" xmlns:serif="http://www.serif.com/" style="fill-rule:evenodd;clip-rule:evenodd;stroke-miterlimit:1;"><path d="M245.76,24.576l0,196.608c0,13.564 -11.012,24.576 -24.576,24.576l-196.608,0c-13.564,0 -24.576,-11.012 -24.576,-24.576l0,-196.608c0,-13.564 11.012,-24.576 24.576,-24.576l196.608,0c13.564,0 24.576,11.012 24.576,24.576Z" style="fill:#d6ad5c;"/><path d="M245.76,24.576l0,196.608c0,13.564 -11.012,24.576 -24.576,24.576l-196.608,0c-13.564,0 -24.576,-11.012 -24.576,-24.576l0,-196.608c0,-13.564 11.012,-24.576 24.576,-24.576l196.608,0c13.564,0 24.576,11.012 24.576,24.576Zm-10,0c0,-8.045 -6.531,-14.576 -14.576,-14.576l-196.608,0c-8.045,0 -14.576,6.531 -14.576,14.576l0,196.608c0,8.045 6.531,14.576 14.576,14.576l196.608,0c8.045,0 14.576,-6.531 14.576,-14.576l0,-196.608Z"/><g><g><path d="M146.069,148.995l63.932,-89.939l-124.397,-13.003l60.465,102.942Z" style="fill:none;stroke:#0077b3;stroke-width:5px;"/><path d="M146.348,148.995l-110.156,65.666l49.412,-168.608" style="fill:none;stroke:#0077b3;stroke-width:5px;"/><path d="M210.001,58.948l-12.244,114.428l-51.409,-24.381" style="fill:none;stroke:#0077b3;stroke-width:5px;"/></g><circle cx="85.604" cy="46.053" r="5.666" style="fill:#d6ad5c;stroke:#0077b3;stroke-width:5px;stroke-linecap:round;stroke-linejoin:bevel;"/><circle cx="210.001" cy="58.45" r="5.666" style="fill:#d6ad5c;stroke:#0077b3;stroke-width:5px;stroke-linecap:round;stroke-linejoin:bevel;"/><circle cx="198.669" cy="173.582" r="5.666" style="fill:#d6ad5c;stroke:#0077b3;stroke-width:5px;stroke-linecap:round;stroke-linejoin:bevel;"/><circle cx="146.348" cy="148.995" r="5.666" style="fill:#d6ad5c;stroke:#0077b3;stroke-width:5px;stroke-linecap:round;stroke-linejoin:bevel;"/><circle cx="36.192" cy="214.661" r="5.666" style="fill:#d6ad5c;stroke:#0077b3;stroke-width:5px;stroke-linecap:round;stroke-linejoin:bevel;"/></g></svg>