<?xml version="1.0" encoding="UTF-8" standalone="no"?><!DOCTYPE svg PUBLIC "-//W3C//DTD SVG 1.1//EN" "http://www.w3.org/Graphics/SVG/1.1/DTD/svg11.dtd"><svg width="100%" height="100%" viewBox="0 0 246 246" version="1.1" xmlns="http://www.w3.org/2000/svg" xmlns:xlink="http://www.w3.org/1999/xlink" xml:space="preserve" xmlns:serif="http://www.serif.com/" style="fill-rule:evenodd;clip-rule:evenodd;stroke-linejoin:round;stroke-miterlimit:2;"><path d="M245.76,24.576l0,196.608c0,13.564 -11.012,24.576 -24.576,24.576l-196.608,0c-13.564,0 -24.576,-11.012 -24.576,-24.576l0,-196.608c0,-13.564 11.012,-24.576 24.576,-24.576l196.608,0c13.564,0 24.576,11.012 24.576,24.576Z" style="fill:#d65cad;"/><path d="M245.76,24.576l0,196.608c0,13.564 -11.012,24.576 -24.576,24.576l-196.608,0c-13.564,0 -24.576,-11.012 -24.576,-24.576l0,-196.608c0,-13.564 11.012,-24.576 24.576,-24.576l196.608,0c13.564,0 24.576,11.012 24.576,24.576Zm-10,0c0,-8.045 -6.531,-14.576 -14.576,-14.576l-196.608,0c-8.045,0 -14.576,6.531 -14.576,14.576l0,196.608c0,8.045 6.531,14.576 14.576,14.576l196.608,0c8.045,0 14.576,-6.531 14.576,-14.576l0,-196.608Z"/><g><path d="M22.711,42.358l10.749,-16.866c6.798,4.335 6.881,4.212 13.468,8.86c16.623,11.729 50.54,37.619 86.933,73.075c8.824,8.598 25.449,25.138 43.894,46.564c20.3,23.582 32.696,41.269 37.592,48.136l-7.01,5.248c-0.882,-1.18 -1.75,-2.37 -2.633,-3.549c-0.412,-0.551 -2.889,-3.645 -3.142,-3.96c-49.663,-62.017 -108.031,-108.206 -142.3,-132.631c-16.676,-11.886 -27.591,-18.577 -28.862,-19.348c-4.405,-2.671 -4.344,-2.764 -8.689,-5.529Z" style="fill:#00b300;"/><path d="M206.726,48.731c-1.825,0.642 -82.991,29.635 -142.33,128.025c-2.698,4.473 -9.901,16.57 -17.573,32.74l-3.651,7.698l-14.573,-6.771c0.382,-0.839 4.131,-9.077 4.786,-10.487c60.589,-130.344 163.457,-168.927 166.645,-170.051c3.159,-1.114 6.318,-2.227 9.478,-3.341l6.64,18.838l-9.399,3.34l-0.023,0.009Z" style="fill:#00b300;"/></g></svg>